{
  "ffplay Standalone": {
    "status": "error",
    "error": "ffplay version 5.1.8-0+deb12u1 Copyright (c) 2003-2025 the FFmpeg developers\n  built with gcc 12 (Debian 12.2.0-14+deb12u1)\n  configuration: --prefix=/usr --extra-version=0+deb12u1 --toolchain=hardened --libdir=/usr/lib/x86_64-linux-gnu --incdir=/usr/include/x86_64-linux-gnu --arch=amd64 --enable-gpl --disable-stripping --enable-gnutls --enable-ladspa --enable-libaom --enable-libass --enable-libbluray --enable-libbs2b --enable-libcaca --enable-libcdio --enable-libcodec2 --enable-libdav1d --enable-libflite --enable-libfontconfig --enable-libfreetype --enable-libfribidi --enable-libglslang --enable-libgme --enable-libgsm --enable-libjack --enable-libmp3lame --enable-libmysofa --enable-libopenjpeg --enable-libopenmpt --enable-libopus --enable-libpulse --enable-librabbitmq --enable-librist --enable-librubberband --enable-libshine --enable-libsnappy --enable-libsoxr --enable-libspeex --enable-libsrt --enable-libssh --enable-libsvtav1 --enable-libtheora --enable-libtwolame --enable-libvidstab --enable-libvorbis --enable-libvpx --enable-libwebp --enable-libx265 --enable-libxml2 --enable-libxvid --enable-libzimg --enable-libzmq --enable-libzvbi --enable-lv2 --enable-omx --enable-openal --enable-opencl --enable-opengl --enable-sdl2 --disable-sndio --enable-libjxl --enable-pocketsphinx --enable-librsvg --enable-libmfx --enable-libdc1394 --enable-libdrm --enable-libiec61883 --enable-chromaprint --enable-frei0r --enable-libx264 --enable-libplacebo --enable-librav1e --enable-shared\n  libavutil      57. 28.100 / 57. 28.100\n  libavcodec     59. 37.100 / 59. 37.100\n  libavformat    59. 27.100 / 59. 27.100\n  libavdevice    59.  7.100 / 59.  7.100\n  libavfilter     8. 44.100 /  8. 44.100\n  libswscale      6.  7.100 /  6.  7.100\n  libswresample   4.  7.100 /  4.  7.100\n  libpostproc    56.  6.100 / 56.  6.100\n    nan    :  0.000 fd=   0 aq=    0KB vq=    0KB sq=    0B f=0/0   \r    nan    :  0.000 fd=   0 aq=    0KB vq=    0KB sq=    0B f=0/0   \r    nan    :  0.000 fd=   0 aq=    0KB vq=    0KB sq=    0B f=0/0   \r[mpeg @ 0x7f340c000c80] stream 4 : no TS found at start of file, duration not set\n[mpeg @ 0x7f340c000c80] Could not find codec parameters for stream 4 (Audio: ac3, 0 channels): unspecified sample format\nConsider increasing the value for the 'analyzeduration' (0) and 'probesize' (5000000) options\nInput #0, mpeg, from 'media/Going Raw - JUDITA_169_OPTION.ISO':\n  Duration: 00:01:55.62, start: 0.233567, bitrate: 88845 kb/s\n  Stream #0:0[0x1bf]: Data: dvd_nav_packet\n  Stream #0:1[0x1e0]: Video: mpeg2video (Main), yuv420p(tv, top first), 720x480 [SAR 8:9 DAR 4:3], 2000 kb/s, 29.97 fps, 29.97 tbr, 90k tbn\n    Side data:\n      cpb: bitrate max/min/avg: 2000000/0/0 buffer size: 1425408 vbv_delay: N/A\n  Stream #0:2[0x20]: Subtitle: dvd_subtitle\n  Stream #0:3[0x21]: Subtitle: dvd_subtitle\n  Stream #0:4[0x80]: Audio: ac3, 0 channels\nFailed to open file 'media/Going Raw - JUDITA_169_OPTION.ISO' or configure filtergraph\n"
  },
  "cvlc TS Stream": {
    "status": "ok",
    "latency": 2.000535249710083
  }
}